<?xml version="1.0" encoding="UTF-8" standalone="no"?>
<!-- Created with Inkscape (http://www.inkscape.org/) -->

<svg
   xmlns:dc="http://purl.org/dc/elements/1.1/"
   xmlns:cc="http://creativecommons.org/ns#"
   xmlns:rdf="http://www.w3.org/1999/02/22-rdf-syntax-ns#"
   xmlns:svg="http://www.w3.org/2000/svg"
   xmlns="http://www.w3.org/2000/svg"
   xmlns:sodipodi="http://sodipodi.sourceforge.net/DTD/sodipodi-0.dtd"
   xmlns:inkscape="http://www.inkscape.org/namespaces/inkscape"
   id="svg3004"
   version="1.1"
   inkscape:version="0.48.4 r9939"
   width="1530"
   height="990"
   xml:space="preserve"
   sodipodi:docname="accessibility20icon_final.pdf"><metadata
     id="metadata3010"><rdf:RDF><cc:Work
         rdf:about=""><dc:format>image/svg+xml</dc:format><dc:type
           rdf:resource="http://purl.org/dc/dcmitype/StillImage" /><dc:title></dc:title></cc:Work></rdf:RDF></metadata><defs
     id="defs3008"><clipPath
       clipPathUnits="userSpaceOnUse"
       id="clipPath3018"><path
         d="M 0,792 1224,792 1224,0 0,0 0,792 z"
         id="path3020" /></clipPath></defs><sodipodi:namedview
     pagecolor="#ffffff"
     bordercolor="#666666"
     borderopacity="1"
     objecttolerance="10"
     gridtolerance="10"
     guidetolerance="10"
     inkscape:pageopacity="0"
     inkscape:pageshadow="2"
     inkscape:window-width="1920"
     inkscape:window-height="1021"
     id="namedview3006"
     showgrid="false"
     inkscape:zoom="0.22875817"
     inkscape:cx="765"
     inkscape:cy="495"
     inkscape:window-x="0"
     inkscape:window-y="27"
     inkscape:window-maximized="1"
     inkscape:current-layer="g3012" /><g
     id="g3012"
     inkscape:groupmode="layer"
     inkscape:label="accessibility20icon_final"
     transform="matrix(1.25,0,0,-1.25,0,990)"><g
       id="g3014"><g
         id="g3016"
         clip-path="url(#clipPath3018)"><g
           id="g3022"
           transform="translate(833.5557,424.4258)"><path
             d="m 0,0 c -7.753,7.955 -18.586,12.155 -29.656,11.549 l -133.982,-7.458 73.734,83.974 c 10.504,11.962 13.505,27.909 9.444,42.158 -2.143,9.763 -8.056,18.648 -17.14,24.324 -0.279,0.199 -176.247,102.423 -176.247,102.423 -14.369,8.346 -32.475,6.508 -44.874,-4.552 l -85.958,-76.676 c -15.837,-14.126 -17.223,-38.416 -3.096,-54.254 14.128,-15.836 38.419,-17.226 54.254,-3.095 l 65.169,58.13 53.874,-31.285 -95.096,-108.304 c -39.433,-6.431 -74.913,-24.602 -102.765,-50.801 l 49.659,-49.66 c 22.45,20.412 52.257,32.871 84.918,32.871 69.667,0 126.346,-56.68 126.346,-126.348 0,-32.662 -12.459,-62.467 -32.869,-84.916 l 49.657,-49.66 c 33.08,35.166 53.382,82.484 53.382,134.576 0,31.035 -7.205,60.384 -20.016,86.483 l 51.862,2.888 -12.617,-154.75 c -1.724,-21.152 14.028,-39.695 35.18,-41.422 1.059,-0.086 2.116,-0.127 3.163,-0.127 19.806,0 36.621,15.219 38.257,35.306 L 10.776,-29.941 C 11.68,-18.871 7.749,-7.953 0,0"
             style="fill:#231f20;fill-opacity:1;fill-rule:nonzero;stroke:none"
             id="path3024" /></g><g
           id="g3026"
           transform="translate(762.3838,589.0352)"><path
             d="m 0,0 c 35.523,0 64.317,28.797 64.317,64.322 0,35.524 -28.794,64.324 -64.317,64.324 -35.527,0 -64.323,-28.8 -64.323,-64.324 C -64.323,28.797 -35.527,0 0,0"
             style="fill:#231f20;fill-opacity:1;fill-rule:nonzero;stroke:none"
             id="path3028" /></g><g
           id="g3030"
           transform="translate(535.7939,141.0742)"><path
             d="m 0,0 c -69.668,0 -126.348,56.68 -126.348,126.348 0,26.256 8.056,50.66 21.817,70.886 l -50.196,50.196 c -26.155,-33.377 -41.791,-75.393 -41.791,-121.082 0,-108.535 87.983,-196.517 196.518,-196.517 45.691,0 87.703,15.636 121.079,41.792 L 70.884,21.816 C 50.658,8.059 26.254,0 0,0"
             style="fill:#231f20;fill-opacity:1;fill-rule:nonzero;stroke:none"
             id="path3032" /></g></g></g></g></svg>