<?xml version="1.0" encoding="UTF-8" standalone="no"?>
<!-- Created with Inkscape (http://www.inkscape.org/) -->

<svg
   xmlns:dc="http://purl.org/dc/elements/1.1/"
   xmlns:cc="http://creativecommons.org/ns#"
   xmlns:rdf="http://www.w3.org/1999/02/22-rdf-syntax-ns#"
   xmlns:svg="http://www.w3.org/2000/svg"
   xmlns="http://www.w3.org/2000/svg"
   xmlns:sodipodi="http://sodipodi.sourceforge.net/DTD/sodipodi-0.dtd"
   xmlns:inkscape="http://www.inkscape.org/namespaces/inkscape"
   width="120"
   height="120"
   id="svg3005"
   version="1.1"
   inkscape:version="0.48.4 r9939"
   sodipodi:docname="New document 3">
  <defs
     id="defs3007" />
  <g
     inkscape:label="Layer 1"
     inkscape:groupmode="layer"
     id="layer1">
    <path
       inkscape:connector-curvature="0"
       d="m 425.71491,435.88392 c -41.68375,0 -75.485,33.795 -75.485,75.485 0,33.35125 21.62875,61.64625 51.62125,71.6275 3.7725,0.69875 5.1575,-1.6375 5.1575,-3.63125 0,-1.8 -0.07,-7.74625 -0.1025,-14.05375 -21,4.56625 -25.43125,-8.90625 -25.43125,-8.90625 -3.43375,-8.725 -8.38125,-11.045 -8.38125,-11.045 -6.84875,-4.685 0.51625,-4.58875 0.51625,-4.58875 7.58,0.53125 11.57125,7.78 11.57125,7.78 6.7325,11.53875 17.65875,8.2025 21.96625,6.27375 0.6775,-4.87875 2.63375,-8.21 4.7925,-10.09375 -16.76625,-1.90875 -34.39125,-8.38125 -34.39125,-37.305 0,-8.24125 2.94875,-14.975 7.7775,-20.26125 -0.78375,-1.9025 -3.3675,-9.57875 0.73125,-19.97625 0,0 6.33875,-2.02875 20.76375,7.7375 6.02125,-1.6725 12.47875,-2.51125 18.89375,-2.54 6.415,0.0288 12.8775,0.8675 18.91,2.54 14.4075,-9.76625 20.7375,-7.7375 20.7375,-7.7375 4.10875,10.3975 1.52375,18.07375 0.74,19.97625 4.84,5.28625 7.76875,12.02 7.76875,20.26125 0,28.9925 -17.65875,35.37625 -34.4675,37.245 2.7075,2.3425 5.12,6.93625 5.12,13.97875 0,10.1 -0.0875,18.22875 -0.0875,20.715 0,2.00875 1.35875,4.3625 5.185,3.62125 29.97625,-9.9925 51.5775,-38.2775 51.5775,-71.6175 0,-41.69 -33.79625,-75.485 -75.48375,-75.485"
       style="fill:#1b1817;fill-opacity:1;fill-rule:evenodd;stroke:none"
       id="path18" />
  </g>
</svg>
